<svg width="31" height="31" viewBox="0 0 31 31" fill="none" xmlns="http://www.w3.org/2000/svg">
<path fill-rule="evenodd" clip-rule="evenodd" d="M25.5807 8.60914C27.4303 7.77879 27.5916 7.02814 27.5916 6.64286C27.5916 6.25757 27.4303 5.50693 25.5807 4.67657C23.7288 3.84621 20.8613 3.32143 17.3666 3.32143C13.8719 3.32143 11.0066 3.84621 9.15243 4.67657C7.30282 5.50693 7.14149 6.25757 7.14149 6.64286C7.14149 7.02814 7.30282 7.77879 9.15243 8.60914C11.0043 9.4395 13.8719 9.96429 17.3666 9.96429C20.8613 9.96429 23.7266 9.4395 25.5807 8.60914ZM17.3666 13.2857C21.2021 13.2857 24.6673 12.71 27.1463 11.5608C27.0876 11.88 27.0232 12.1981 26.9531 12.5151L24.2719 24.7159C24.2466 24.7869 24.217 24.8564 24.1833 24.924C24.0072 25.2809 23.7689 25.6054 23.4789 25.8828C22.7836 26.5604 21.1385 27.6786 17.3666 27.6786C13.5947 27.6786 11.9496 26.5604 11.2542 25.885C10.9637 25.6072 10.7253 25.2819 10.5499 24.924C10.5168 24.8556 10.488 24.7854 10.4635 24.7136L10.4135 24.4922C10.6612 24.4546 10.9111 24.4081 11.1634 24.3527C14.6126 23.6198 18.6254 21.5782 23.0267 17.8626C23.1959 17.7199 23.3346 17.546 23.4348 17.351C23.5351 17.156 23.5949 16.9437 23.611 16.7261C23.627 16.5086 23.5989 16.2901 23.5283 16.0831C23.4577 15.8762 23.3459 15.6848 23.1994 15.5199C23.0529 15.3551 22.8745 15.2199 22.6744 15.1222C22.4743 15.0245 22.2564 14.9662 22.0332 14.9506C21.8099 14.935 21.5857 14.9623 21.3733 15.0312C21.161 15.1 20.9646 15.2089 20.7954 15.3516C16.6758 18.8325 13.1607 20.5286 10.434 21.1088C10.184 21.1619 9.93635 21.2062 9.69776 21.2416L7.77999 12.5174C7.71183 12.1985 7.64593 11.8819 7.58685 11.5608C10.0636 12.7122 13.531 13.2857 17.3666 13.2857ZM6.16443 21.0269L4.58068 13.8216C3.94445 14.7649 3.59453 15.6949 3.46728 16.5385C3.22416 18.1328 3.76268 19.468 4.81245 20.3028C5.17146 20.5906 5.62137 20.8431 6.1667 21.0269H6.16443ZM3.87402 9.55243C3.78039 8.58525 3.73338 7.61433 3.73314 6.64286C3.73314 2.21429 9.83637 0 17.3666 0C24.8968 0 31 2.21429 31 6.64286C31 8.8505 30.7614 11.0537 30.2865 13.2126L27.5916 25.4643C27.5916 25.4643 26.4555 31 17.3666 31C8.27761 31 7.14149 25.4643 7.14149 25.4643L6.95063 24.5919C5.27826 24.3904 3.81948 23.8036 2.6561 22.8758C0.576997 21.2195 -0.304632 18.6753 0.0930101 16.0536C0.433846 13.795 1.70176 11.5165 3.86947 9.55243H3.87402Z" fill="white"/>
</svg>
