<svg width="35" height="35" viewBox="0 0 35 35" fill="none" xmlns="http://www.w3.org/2000/svg">
<path d="M2 17.5L17.5 2L33 17.5M5.875 14.5938V31.0625C5.875 31.5764 6.07913 32.0692 6.44248 32.4325C6.80583 32.7959 7.29864 33 7.8125 33H13.625V27.1875C13.625 26.6736 13.8291 26.1808 14.1925 25.8175C14.5558 25.4541 15.0486 25.25 15.5625 25.25H19.4375C19.9514 25.25 20.4442 25.4541 20.8075 25.8175C21.1709 26.1808 21.375 26.6736 21.375 27.1875V33H27.1875C27.7014 33 28.1942 32.7959 28.5575 32.4325C28.9209 32.0692 29.125 31.5764 29.125 31.0625V14.5938" stroke="white" stroke-width="3" stroke-linecap="round" stroke-linejoin="round"/>
</svg>
