<svg width="45" height="45" viewBox="0 0 45 45" fill="none" xmlns="http://www.w3.org/2000/svg">
<g id="Group 1">
<path id="Vector" d="M42.5771 30.996H36.7294C39.9283 28.4099 42.1099 24.7761 42.8885 20.737C43.6671 16.6979 42.9927 12.5136 40.9845 8.92371C38.9762 5.33379 35.7634 2.56947 31.914 1.11937C28.0646 -0.330722 23.8265 -0.373208 19.9488 0.999425C16.0712 2.37206 12.8036 5.07142 10.7238 8.62035C8.64396 12.1693 7.88579 16.3392 8.58331 20.3931C9.28082 24.447 11.3891 28.1238 14.5355 30.7735C17.6818 33.4232 21.6637 34.8753 25.7771 34.8729H42.5771C43.0912 34.8729 43.5843 34.6687 43.9478 34.3052C44.3114 33.9416 44.5156 33.4486 44.5156 32.9345C44.5156 32.4204 44.3114 31.9273 43.9478 31.5638C43.5843 31.2002 43.0912 30.996 42.5771 30.996ZM12.2079 17.4268C12.2079 14.743 13.0037 12.1196 14.4947 9.88811C15.9857 7.65666 18.105 5.91746 20.5844 4.89043C23.0639 3.86341 25.7922 3.59469 28.4244 4.11827C31.0565 4.64184 33.4743 5.93418 35.372 7.83187C37.2697 9.72956 38.5621 12.1474 39.0856 14.7795C39.6092 17.4117 39.3405 20.14 38.3135 22.6195C37.2864 25.0989 35.5472 27.2182 33.3158 28.7092C31.0843 30.2002 28.4609 30.996 25.7771 30.996C22.1795 30.9922 18.7304 29.5613 16.1865 27.0174C13.6426 24.4735 12.2117 21.0244 12.2079 17.4268ZM22.5464 10.3191C22.5464 9.68009 22.7358 9.05545 23.0908 8.52416C23.4458 7.99286 23.9504 7.57876 24.5408 7.33423C25.1311 7.0897 25.7807 7.02572 26.4074 7.15038C27.0341 7.27504 27.6098 7.58275 28.0616 8.03458C28.5135 8.48641 28.8212 9.06208 28.9458 9.68878C29.0705 10.3155 29.0065 10.9651 28.762 11.5554C28.5174 12.1458 28.1033 12.6504 27.5721 13.0054C27.0408 13.3604 26.4161 13.5498 25.7771 13.5498C24.9203 13.5498 24.0985 13.2095 23.4926 12.6036C22.8867 11.9977 22.5464 11.1759 22.5464 10.3191ZM25.7771 27.7652C25.1381 27.7652 24.5135 27.5758 23.9822 27.2208C23.4509 26.8658 23.0368 26.3612 22.7923 25.7708C22.5478 25.1805 22.4838 24.5309 22.6084 23.9042C22.7331 23.2775 23.0408 22.7018 23.4926 22.25C23.9445 21.7981 24.5201 21.4904 25.1468 21.3658C25.7735 21.2411 26.4231 21.3051 27.0135 21.5496C27.6038 21.7942 28.1084 22.2082 28.4634 22.7395C28.8184 23.2708 29.0079 23.8955 29.0079 24.5345C29.0079 24.9587 28.9243 25.3789 28.762 25.7708C28.5996 26.1628 28.3616 26.519 28.0616 26.819C27.7616 27.119 27.4055 27.3569 27.0135 27.5193C26.6215 27.6817 26.2014 27.7652 25.7771 27.7652ZM29.6541 17.4268C29.6541 16.7878 29.8435 16.1631 30.1985 15.6319C30.5535 15.1006 31.0581 14.6865 31.6485 14.4419C32.2388 14.1974 32.8884 14.1334 33.5151 14.2581C34.1418 14.3827 34.7175 14.6904 35.1693 15.1423C35.6212 15.5941 35.9289 16.1698 36.0535 16.7965C36.1782 17.4232 36.1142 18.0728 35.8697 18.6631C35.6251 19.2535 35.211 19.7581 34.6797 20.1131C34.1484 20.4681 33.5238 20.6575 32.8848 20.6575C32.028 20.6575 31.2062 20.3172 30.6003 19.7113C29.9944 19.1054 29.6541 18.2836 29.6541 17.4268ZM21.9002 17.4268C21.9002 18.0658 21.7107 18.6904 21.3557 19.2217C21.0007 19.753 20.4961 20.1671 19.9058 20.4116C19.3155 20.6561 18.6659 20.7201 18.0391 20.5955C17.4124 20.4708 16.8368 20.1631 16.3849 19.7113C15.9331 19.2594 15.6254 18.6838 15.5007 18.0571C15.3761 17.4304 15.4401 16.7808 15.6846 16.1904C15.9291 15.6001 16.3432 15.0955 16.8745 14.7405C17.4058 14.3855 18.0305 14.196 18.6694 14.196C19.5263 14.196 20.348 14.5364 20.9539 15.1423C21.5598 15.7482 21.9002 16.5699 21.9002 17.4268Z" fill="white"/>
<path id="Line 1" d="M1.30714 40.2664C0.349676 41.2013 0.331413 42.7354 1.26635 43.6929C2.20129 44.6503 3.73539 44.6686 4.69286 43.7337L1.30714 40.2664ZM15.0379 26.8587L1.30714 40.2664L4.69286 43.7337L18.4236 30.326L15.0379 26.8587Z" fill="white"/>
</g>
</svg>
