<svg width="31" height="31" viewBox="0 0 31 31" fill="none" xmlns="http://www.w3.org/2000/svg">
<path d="M29.0625 31C29.0625 31 31 31 31 28.4167C31 25.8333 29.0625 18.0833 21.3125 18.0833C13.5625 18.0833 11.625 25.8333 11.625 28.4167C11.625 31 13.5625 31 13.5625 31H29.0625ZM13.6051 28.4167L13.5625 28.4063C13.5644 27.7243 13.8861 25.7455 15.035 23.963C16.1045 22.2916 17.9839 20.6667 21.3125 20.6667C24.6392 20.6667 26.5186 22.2942 27.59 23.963C28.7389 25.7455 29.0586 27.7269 29.0625 28.4063L29.047 28.4115L29.0199 28.4167H13.6051ZM21.3125 12.9167C22.3402 12.9167 23.3258 12.3723 24.0525 11.4034C24.7792 10.4344 25.1875 9.12029 25.1875 7.75C25.1875 6.37971 24.7792 5.06555 24.0525 4.09661C23.3258 3.12768 22.3402 2.58333 21.3125 2.58333C20.2848 2.58333 19.2992 3.12768 18.5725 4.09661C17.8458 5.06555 17.4375 6.37971 17.4375 7.75C17.4375 9.12029 17.8458 10.4344 18.5725 11.4034C19.2992 12.3723 20.2848 12.9167 21.3125 12.9167ZM27.125 7.75C27.125 8.76774 26.9747 9.77552 26.6826 10.7158C26.3904 11.6561 25.9623 12.5104 25.4226 13.2301C24.8828 13.9497 24.2421 14.5206 23.5368 14.9101C22.8316 15.2995 22.0758 15.5 21.3125 15.5C20.5492 15.5 19.7934 15.2995 19.0882 14.9101C18.3829 14.5206 17.7422 13.9497 17.2024 13.2301C16.6627 12.5104 16.2346 11.6561 15.9424 10.7158C15.6503 9.77552 15.5 8.76774 15.5 7.75C15.5 5.69457 16.1124 3.72333 17.2024 2.26992C18.2925 0.816516 19.7709 0 21.3125 0C22.8541 0 24.3325 0.816516 25.4226 2.26992C26.5126 3.72333 27.125 5.69457 27.125 7.75ZM13.4385 18.8067C12.663 18.4835 11.8643 18.2697 11.0554 18.1686C10.6008 18.1095 10.1442 18.081 9.6875 18.0833C1.9375 18.0833 0 25.8333 0 28.4167C0 30.1389 0.645833 31 1.9375 31H10.106C9.81891 30.1935 9.67567 29.3093 9.6875 28.4167C9.6875 25.8075 10.4179 23.1415 11.7994 20.9147C12.2702 20.1552 12.8185 19.4447 13.4385 18.8067ZM9.5325 20.6667C8.38652 22.9644 7.76714 25.6574 7.75 28.4167H1.9375C1.9375 27.745 2.25525 25.7558 3.41 23.963C4.46594 22.32 6.30075 20.7183 9.5325 20.6693V20.6667ZM2.90625 9.04167C2.90625 6.98624 3.51864 5.015 4.60869 3.56159C5.69875 2.10818 7.17718 1.29167 8.71875 1.29167C10.2603 1.29167 11.7388 2.10818 12.8288 3.56159C13.9189 5.015 14.5312 6.98624 14.5312 9.04167C14.5312 11.0971 13.9189 13.0683 12.8288 14.5217C11.7388 15.9752 10.2603 16.7917 8.71875 16.7917C7.17718 16.7917 5.69875 15.9752 4.60869 14.5217C3.51864 13.0683 2.90625 11.0971 2.90625 9.04167ZM8.71875 3.875C7.69104 3.875 6.70541 4.41934 5.97871 5.38828C5.25201 6.35722 4.84375 7.67138 4.84375 9.04167C4.84375 10.412 5.25201 11.7261 5.97871 12.6951C6.70541 13.664 7.69104 14.2083 8.71875 14.2083C9.74646 14.2083 10.7321 13.664 11.4588 12.6951C12.1855 11.7261 12.5937 10.412 12.5938 9.04167C12.5937 7.67138 12.1855 6.35722 11.4588 5.38828C10.7321 4.41934 9.74646 3.875 8.71875 3.875Z" fill="white"/>
</svg>
