<svg width="72" height="72" viewBox="0 0 72 72" fill="none" xmlns="http://www.w3.org/2000/svg">
<ellipse cx="36.5" cy="36" rx="32.5" ry="33" fill="#141D26"/>
<path fill-rule="evenodd" clip-rule="evenodd" d="M49.0909 26.1818C49.0909 29.6537 47.7117 32.9835 45.2567 35.4385C42.8017 37.8935 39.4719 39.2727 36 39.2727C32.5281 39.2727 29.1984 37.8935 26.7433 35.4385C24.2883 32.9835 22.9091 29.6537 22.9091 26.1818C22.9091 22.7099 24.2883 19.3802 26.7433 16.9251C29.1984 14.4701 32.5281 13.0909 36 13.0909C39.4719 13.0909 42.8017 14.4701 45.2567 16.9251C47.7117 19.3802 49.0909 22.7099 49.0909 26.1818ZM42.5455 26.1818C42.5455 27.9178 41.8559 29.5826 40.6283 30.8101C39.4008 32.0377 37.736 32.7273 36 32.7273C34.264 32.7273 32.5992 32.0377 31.3717 30.8101C30.1442 29.5826 29.4546 27.9178 29.4546 26.1818C29.4546 24.4459 30.1442 22.781 31.3717 21.5535C32.5992 20.326 34.264 19.6364 36 19.6364C37.736 19.6364 39.4008 20.326 40.6283 21.5535C41.8559 22.781 42.5455 24.4459 42.5455 26.1818Z" fill="white"/>
<path fill-rule="evenodd" clip-rule="evenodd" d="M36 0C16.1182 0 0 16.1182 0 36C0 55.8818 16.1182 72 36 72C55.8818 72 72 55.8818 72 36C72 16.1182 55.8818 0 36 0ZM6.54545 36C6.54545 42.84 8.87891 49.1367 12.7898 54.1375C15.5364 50.5306 19.0797 47.6075 23.1429 45.5967C27.2061 43.5858 31.6792 42.5415 36.2127 42.5455C40.6876 42.5412 45.1045 43.5584 49.1267 45.5196C53.1489 47.4809 56.6704 50.3343 59.4229 53.8625C62.2586 50.1434 64.1678 45.8025 64.9927 41.199C65.8177 36.5955 65.5345 31.8617 64.1667 27.3894C62.7989 22.9171 60.3858 18.8347 57.127 15.4801C53.8683 12.1255 49.8576 9.59518 45.4267 8.09839C40.9959 6.60161 36.2723 6.18143 31.6468 6.87264C27.0213 7.56384 22.627 9.34655 18.8272 12.0733C15.0275 14.8 11.9317 18.3923 9.79602 22.553C7.6603 26.7137 6.54605 31.3232 6.54545 36ZM36 65.4545C29.2384 65.4647 22.6809 63.1386 17.4371 58.8698C19.5478 55.8482 22.3571 53.3812 25.6261 51.6786C28.8951 49.976 32.5269 49.0883 36.2127 49.0909C39.8525 49.088 43.4405 49.9535 46.6787 51.6156C49.9168 53.2776 52.7117 55.6883 54.8313 58.6473C49.5468 63.0547 42.8812 65.4642 36 65.4545Z" fill="white"/>
</svg>
