<svg width="20" height="20" viewBox="0 0 20 20" fill="none" xmlns="http://www.w3.org/2000/svg">
<path d="M11.4815 14.8148C11.4815 15.1078 11.3946 15.3943 11.2318 15.6379C11.069 15.8815 10.8376 16.0714 10.5669 16.1835C10.2962 16.2957 9.99836 16.325 9.71098 16.2678C9.4236 16.2107 9.15963 16.0696 8.95244 15.8624C8.74525 15.6552 8.60415 15.3912 8.54699 15.1038C8.48982 14.8165 8.51916 14.5186 8.63129 14.2479C8.74342 13.9772 8.93331 13.7458 9.17694 13.583C9.42056 13.4202 9.70699 13.3333 10 13.3333C10.3929 13.3333 10.7697 13.4894 11.0476 13.7672C11.3254 14.0451 11.4815 14.4219 11.4815 14.8148ZM20 10C20 11.9778 19.4135 13.9112 18.3147 15.5557C17.2159 17.2002 15.6541 18.4819 13.8268 19.2388C11.9996 19.9957 9.98891 20.1937 8.0491 19.8078C6.10929 19.422 4.32746 18.4696 2.92894 17.0711C1.53041 15.6725 0.578004 13.8907 0.192152 11.9509C-0.1937 10.0111 0.00433286 8.00043 0.761209 6.17316C1.51809 4.3459 2.79981 2.78412 4.4443 1.6853C6.08879 0.58649 8.02219 0 10 0C12.6513 0.00294095 15.1931 1.05745 17.0678 2.93218C18.9425 4.80691 19.9971 7.34874 20 10ZM17.7778 10C17.7778 8.4617 17.3216 6.95795 16.467 5.6789C15.6124 4.39985 14.3976 3.40295 12.9764 2.81427C11.5552 2.22559 9.99137 2.07156 8.48263 2.37167C6.97389 2.67178 5.58803 3.41254 4.50028 4.50028C3.41254 5.58802 2.67178 6.97389 2.37167 8.48263C2.07157 9.99137 2.22559 11.5552 2.81427 12.9764C3.40296 14.3976 4.39985 15.6123 5.6789 16.467C6.95795 17.3216 8.4617 17.7778 10 17.7778C12.0621 17.7756 14.0391 16.9554 15.4973 15.4973C16.9554 14.0391 17.7756 12.0621 17.7778 10ZM10 4.07407C7.75371 4.07407 5.92593 5.73518 5.92593 7.77778V8.14815C5.92593 8.44283 6.04299 8.72545 6.25137 8.93382C6.45974 9.14219 6.74235 9.25926 7.03704 9.25926C7.33172 9.25926 7.61434 9.14219 7.82271 8.93382C8.03109 8.72545 8.14815 8.44283 8.14815 8.14815V7.77778C8.14815 6.96111 8.98148 6.2963 10 6.2963C11.0185 6.2963 11.8519 6.96111 11.8519 7.77778C11.8519 8.59444 11.0185 9.25926 10 9.25926C9.70532 9.25926 9.4227 9.37632 9.21433 9.58469C9.00595 9.79307 8.88889 10.0757 8.88889 10.3704V11.1111C8.88823 11.3856 8.98921 11.6507 9.17237 11.8551C9.35553 12.0596 9.60789 12.189 9.88082 12.2185C10.1538 12.2479 10.4279 12.1753 10.6505 12.0146C10.873 11.8539 11.0282 11.6165 11.0861 11.3481C12.8065 10.9148 14.0741 9.4787 14.0741 7.77778C14.0741 5.73518 12.2463 4.07407 10 4.07407Z" fill="white"/>
</svg>
